<?xml version="1.0" encoding="UTF-8" standalone="no"?>
<!-- Created with Inkscape (http://www.inkscape.org/) -->

<svg
   width="309.89856mm"
   height="112.50895mm"
   viewBox="0 0 309.89856 112.50895"
   version="1.1"
   id="svg5"
   inkscape:version="1.1.2 (0a00cf5339, 2022-02-04)"
   sodipodi:docname="human-torus.svg"
   xmlns:inkscape="http://www.inkscape.org/namespaces/inkscape"
   xmlns:sodipodi="http://sodipodi.sourceforge.net/DTD/sodipodi-0.dtd"
   xmlns="http://www.w3.org/2000/svg"
   xmlns:svg="http://www.w3.org/2000/svg">
  <sodipodi:namedview
     id="namedview7"
     pagecolor="#ffffff"
     bordercolor="#666666"
     borderopacity="1.0"
     inkscape:pageshadow="2"
     inkscape:pageopacity="0.0"
     inkscape:pagecheckerboard="0"
     inkscape:document-units="mm"
     showgrid="false"
     inkscape:snap-global="true"
     inkscape:snap-smooth-nodes="true"
     inkscape:zoom="0.76435185"
     inkscape:cx="673.11932"
     inkscape:cy="156.34161"
     inkscape:window-width="1920"
     inkscape:window-height="997"
     inkscape:window-x="1920"
     inkscape:window-y="0"
     inkscape:window-maximized="1"
     inkscape:current-layer="layer1"
     fit-margin-top="0"
     fit-margin-left="0"
     fit-margin-right="0"
     fit-margin-bottom="0" />
  <defs
     id="defs2" />
  <g
     inkscape:label="Layer 1"
     inkscape:groupmode="layer"
     id="layer1"
     transform="translate(-9.917511,-35.468151)">
    <path
       id="path1909"
       style="fill:#4c4c4c;fill-opacity:0.701961;stroke:#000000;stroke-width:0.264999;stroke-linecap:butt;stroke-linejoin:miter;stroke-miterlimit:4;stroke-dasharray:0.794999, 0.264999;stroke-dashoffset:0;stroke-opacity:1"
       d="m 52.105103,68.9456 -2.65802,6.912777 c -0.730621,2.074233 -1.523548,3.877061 -0.971899,7.356922 l 0.333049,34.390551 H 44.763707 L 45.01173,82.97747 c 0.07441,-6.143024 -0.985494,-5.656582 -1.544484,-8.097723 l -2.289141,-6.223072 c 0.204872,-1.304226 0.914694,-1.696257 1.751608,-1.858687 -0.144584,-0.859049 -0.184298,-1.546529 -0.158131,-2.128552 -2.250387,-1.957699 -3.065412,-5.197464 -2.414323,-8.040335 l 0.542602,-0.400492 c -0.652584,2.849393 -0.247917,5.703139 1.936835,7.756631 0.04692,-0.315069 0.113506,-0.599819 0.190169,-0.870231 -0.665009,-0.893191 -2.110086,-2.085178 -1.585949,-3.671609 l 1.731676,-3.614767 c 0.530802,-1.107887 -0.388326,-1.351018 -1.19631,-1.584918 l -0.14831,-0.554487 c 0.807982,0.2339 2.451097,0.862021 1.920296,1.969905 L 42.016072,59.2739 c -0.521546,1.578599 0.514848,2.425152 1.176158,3.309876 0.07615,-0.228295 0.155604,-0.453504 0.23151,-0.687297 0.278683,0.513619 0.729213,0.832567 1.567344,0.713652 -1.338143,2.76546 -0.863703,1.683465 -0.671274,3.855062 1.287486,-0.395071 2.508512,-0.943555 4.375944,0 0.192431,-2.171597 0.666871,-1.089602 -0.67128,-3.855062 0.838131,0.118915 1.288661,-0.200033 1.567349,-0.713652 0.0759,0.233793 0.155361,0.459002 0.231511,0.687297 0.66131,-0.884724 1.697701,-1.731277 1.176149,-3.309876 l -1.73219,-3.614767 c -0.530799,-1.107884 1.112311,-1.736005 1.92029,-1.969905 l -0.148309,0.554487 c -0.807979,0.2339 -1.72711,0.477031 -1.196308,1.584918 l 1.731679,3.614767 c 0.52414,1.586431 -0.92094,2.778418 -1.585949,3.671609 0.0767,0.270412 0.143248,0.555162 0.190169,0.870231 2.184749,-2.053492 2.589419,-4.907238 1.93684,-7.756631 l 0.542599,0.400492 c 0.65109,2.842871 -0.163941,6.082636 -2.414331,8.040335 0.02619,0.582023 -0.01349,1.269503 -0.158128,2.128552 0.868752,0.440717 1.894634,0.660472 2.019258,2.147612 z"
       sodipodi:nodetypes="ccccccccccccccccccccccccccccccccccccccccc" />
    <path
       id="path846"
       style="fill:#c5c5c5;fill-opacity:0.700294;stroke:#000000;stroke-width:0.865;stroke-miterlimit:4;stroke-dasharray:none;stroke-opacity:1"
       d="m 46.78529,35.900651 c -11.620132,-6.9e-5 -21.040127,9.419925 -21.040058,21.040058 5.29e-4,9.807339 6.776868,18.313579 16.335954,20.506242 v 5.535581 h -3.900538 c -3.043261,0 -5.737301,1.435925 -7.449158,3.668509 -0.372835,0.246639 -0.718664,0.5487 -1.023191,0.907438 L 11.49625,106.8908 c -1.7278322,2.0354 -1.480394,5.06504 0.555006,6.79287 l 2.022099,1.71617 c 2.0354,1.72784 5.065033,1.4804 6.792868,-0.555 l 7.933086,-7.2235 v 11.59202 c 0,1.07086 0.179941,2.0975 0.507463,3.05459 -0.123671,0.43188 -0.192688,0.88823 -0.187587,1.36116 l 0.20619,19.12037 c 0.02879,2.66973 2.173785,4.80853 4.843632,4.79506 l 2.168861,-0.0109 c 2.669847,-0.0135 4.820785,-2.17388 4.795054,-4.84363 l -0.180866,-24.85437 h 12.919625 l -0.180869,24.85437 c -0.01942,2.66981 2.12521,4.83016 4.795057,4.84363 l 2.168861,0.0109 c 2.669846,0.0135 4.814842,-2.12533 4.843631,-4.79506 l 0.206187,-19.12037 c 0.0097,-0.89744 -0.234995,-1.73658 -0.655256,-2.45669 0.133191,-0.6316 0.204123,-1.28669 0.204123,-1.95906 v -12.19199 l 8.519562,8.69268 c 1.868808,1.90678 4.757465,2.28283 6.792868,0.555 l 2.021581,-1.71618 c 2.035399,-1.72783 2.282838,-4.75746 0.555005,-6.79286 L 64.853439,87.558479 C 64.318418,86.928221 63.658414,86.469872 62.941928,86.18802 61.224785,84.222234 58.699236,82.982532 55.872074,82.982532 H 51.719872 V 77.385457 C 61.165029,75.106749 67.821488,66.656854 67.825351,56.940709 67.825419,45.320576 58.405422,35.900579 46.78529,35.900651 Z"
       sodipodi:nodetypes="ccccscccccccscssccsccsccsscscscccccscccc" />
    <ellipse
       style="fill:none;stroke:#000000;stroke-width:0.865;stroke-miterlimit:4;stroke-dasharray:none;stroke-opacity:1"
       id="path1579"
       cx="54.195072"
       cy="54.617413"
       rx="3.5164485"
       ry="2.1732845" />
    <ellipse
       style="fill:none;stroke:#000000;stroke-width:0.865;stroke-miterlimit:4;stroke-dasharray:none;stroke-opacity:1"
       id="ellipse1661"
       cx="38.48428"
       cy="54.617413"
       rx="3.5164485"
       ry="2.1732845" />
    <ellipse
       style="fill:none;stroke:#000000;stroke-width:0.865;stroke-miterlimit:4;stroke-dasharray:none;stroke-opacity:1"
       id="path1685"
       cx="46.602459"
       cy="68.656677"
       rx="5.4243512"
       ry="2.7121756" />
    <ellipse
       style="fill:none;stroke:#000000;stroke-width:0.865;stroke-miterlimit:4;stroke-dasharray:none;stroke-opacity:1"
       id="path1792"
       cx="48.420475"
       cy="61.383331"
       rx="1.0986328"
       ry="1.3394737" />
    <ellipse
       style="fill:none;stroke:#000000;stroke-width:0.865;stroke-miterlimit:4;stroke-dasharray:none;stroke-opacity:1"
       id="ellipse1874"
       cx="44.552868"
       cy="61.383331"
       rx="1.0986328"
       ry="1.3394737" />
    <path
       id="path13469"
       style="fill:#4c4c4c;fill-opacity:0.701961;stroke:#000000;stroke-width:0.264999;stroke-linecap:butt;stroke-linejoin:miter;stroke-miterlimit:4;stroke-dasharray:0.529999, 0.264999;stroke-dashoffset:0;stroke-opacity:1"
       d="m 120.99498,68.227994 c 2.56517,6.38152 10.54052,12.033658 16.81182,17.455152 v 4.672294 c -3.83204,-2.983772 -1.37093,0.306055 -12.49394,-12.973225 -2.13483,-3.744598 -8.45242,-4.30892 -11.35234,0 -0.76691,3.492262 12.90122,4.546913 23.84628,18.615118 V 100.052 c -5.92994,-2.382809 -12.91978,-4.039292 -12.78377,-12.253191 -2.38726,-4.177629 -9.96073,-2.937049 -11.35266,-1.85e-4 1.55606,6.585955 8.52175,12.688716 24.13643,18.018296 v 12.71492 c 4.18627,5.84596 12.34598,1.60211 11.35233,0 v -12.59799 c 15.85725,-5.35725 22.91358,-11.500957 24.48104,-18.135226 -2.43814,-3.825131 -9.32355,-3.972239 -11.35233,0 -0.41127,8.17351 -7.10685,9.939716 -13.12871,12.392326 v -3.743714 c 11.00043,-14.495072 24.96649,-15.535985 24.19151,-19.065021 -1.84529,-3.717549 -9.21677,-4.821729 -11.35234,0 -11.43863,13.65607 -8.5146,9.792663 -12.83917,13.246232 v -4.644753 c 6.3206,-5.513264 14.54443,-11.256133 17.15705,-17.7557 -1.41579,-3.065414 -9.70081,-4.508873 -11.35233,0 1.08274,7.250503 -2.79144,10.461531 -5.80472,14.10197 v -4.189335 c -1.44953,-3.551044 -8.59679,-4.454961 -11.35233,0 v 4.246261 c -2.70212,-4.07147 -6.4754,-7.355881 -5.45948,-14.158896 -1.7765,-2.123154 -7.808,-5.781244 -11.35234,0 z"
       sodipodi:nodetypes="ccccccccccccccccccccccccccccc" />
    <circle
       style="fill:#c5c5c5;fill-opacity:0.701961;stroke:#000000;stroke-width:0.765;stroke-miterlimit:4;stroke-dasharray:none;stroke-dashoffset:0;stroke-opacity:1"
       id="path13109"
       cx="144.33745"
       cy="88.962234"
       r="41.087521" />
    <ellipse
       style="fill:none;fill-opacity:0.701961;stroke:#000000;stroke-width:0.764998;stroke-miterlimit:4;stroke-dasharray:none;stroke-dashoffset:0;stroke-opacity:1"
       id="path13231"
       cx="143.48322"
       cy="78.140388"
       rx="5.6761765"
       ry="2.8299918" />
    <ellipse
       style="fill:none;fill-opacity:0.701961;stroke:#000000;stroke-width:0.764998;stroke-miterlimit:4;stroke-dasharray:none;stroke-dashoffset:0;stroke-opacity:1"
       id="ellipse13342"
       cx="167.54228"
       cy="77.12133"
       rx="5.6761765"
       ry="2.8299918" />
    <ellipse
       style="fill:none;fill-opacity:0.701961;stroke:#000000;stroke-width:0.764998;stroke-miterlimit:4;stroke-dasharray:none;stroke-dashoffset:0;stroke-opacity:1"
       id="ellipse13344"
       cx="119.63665"
       cy="77.382187"
       rx="5.6761765"
       ry="2.8299918" />
    <ellipse
       style="fill:none;fill-opacity:0.701961;stroke:#000000;stroke-width:0.764998;stroke-miterlimit:4;stroke-dasharray:none;stroke-dashoffset:0;stroke-opacity:1"
       id="ellipse13346"
       cx="126.67102"
       cy="68.22802"
       rx="5.6761765"
       ry="2.8299918" />
    <ellipse
       style="fill:none;fill-opacity:0.701961;stroke:#000000;stroke-width:0.764998;stroke-miterlimit:4;stroke-dasharray:none;stroke-dashoffset:0;stroke-opacity:1"
       id="ellipse13348"
       cx="160.63986"
       cy="68.22802"
       rx="5.6761765"
       ry="2.8299918" />
    <ellipse
       style="fill:none;fill-opacity:0.701961;stroke:#000000;stroke-width:0.764998;stroke-miterlimit:4;stroke-dasharray:none;stroke-dashoffset:0;stroke-opacity:1"
       id="ellipse13350"
       cx="119.34684"
       cy="87.798805"
       rx="5.6761765"
       ry="2.8299918" />
    <ellipse
       style="fill:none;fill-opacity:0.701961;stroke:#000000;stroke-width:0.764998;stroke-miterlimit:4;stroke-dasharray:none;stroke-dashoffset:0;stroke-opacity:1"
       id="ellipse13352"
       cx="167.96404"
       cy="87.798805"
       rx="5.6761765"
       ry="2.8299918" />
    <ellipse
       style="fill:none;fill-opacity:0.701961;stroke:#000000;stroke-width:0.764998;stroke-miterlimit:4;stroke-dasharray:none;stroke-dashoffset:0;stroke-opacity:1"
       id="ellipse13434"
       cx="143.48322"
       cy="118.53189"
       rx="5.6761765"
       ry="2.8299918" />
    <path
       id="path18798"
       style="fill:#c5c5c5;fill-opacity:0.701961;stroke:#000000;stroke-width:0.765;stroke-linecap:butt;stroke-linejoin:miter;stroke-miterlimit:4;stroke-dasharray:none;stroke-opacity:1"
       d="m 280.48746,56.592633 c -9.63081,-0.01771 -11.98542,5.762448 -18.43211,5.877607 -6.90716,0.123382 -6.77746,-5.55944 -19.95975,-5.587654 -15.01205,-0.03213 -17.2594,9.745142 -20.84278,13.045257 -5.98695,5.513689 -18.62178,7.700802 -19.2109,16.782986 -0.73355,11.308484 8.86976,12.739255 14.73092,17.686431 7.6811,6.48331 9.89774,14.93901 26.07564,15.12516 14.15863,0.16292 12.2413,-6.52058 18.89259,-6.43863 5.94687,0.0733 1.70859,6.51105 20.4617,6.40919 19.53022,-0.10608 17.91935,-11.20126 23.34894,-16.67612 4.98837,-5.029982 13.99381,-9.280666 13.88079,-15.291292 -0.1525,-8.110107 -10.24937,-10.55612 -15.95183,-15.173495 -7.22233,-5.84802 -4.44339,-15.725307 -22.99321,-15.75944 z m -37.52442,7.054034 c 7.05868,-4.1e-5 12.78081,2.954707 12.78046,6.599468 3.5e-4,3.644761 -5.72178,6.59951 -12.78046,6.599469 -7.05868,4.1e-5 -12.78081,-2.954708 -12.78046,-6.599469 -3.5e-4,-3.644761 5.72178,-6.599509 12.78046,-6.599468 z m 37.97585,0 c 7.05868,-4.1e-5 12.78081,2.954707 12.78046,6.599468 3.5e-4,3.644761 -5.72178,6.59951 -12.78046,6.599469 -7.05868,3.8e-5 -12.7808,-2.95471 -12.78045,-6.599469 -3.5e-4,-3.644759 5.72177,-6.599506 12.78045,-6.599468 z m -54.22762,16.42845 c 7.05868,-3.8e-5 12.7808,2.954708 12.78045,6.599467 -4.5e-4,3.644465 -5.72234,6.598753 -12.78045,6.598715 -7.05782,-1.7e-4 -12.77927,-2.954397 -12.77972,-6.598715 -3.5e-4,-3.644611 5.72133,-6.599297 12.77972,-6.599467 z m 35.4006,0 c 7.05868,-4.1e-5 12.78081,2.954706 12.78046,6.599467 -4.5e-4,3.644467 -5.72235,6.598756 -12.78046,6.598715 -7.05781,-1.78e-4 -12.77924,-2.954403 -12.77969,-6.598715 -3.5e-4,-3.644605 5.72131,-6.599288 12.77969,-6.599467 z m 33.20598,0 c 7.05868,-3.8e-5 12.7808,2.954708 12.78045,6.599467 -4.5e-4,3.644465 -5.72234,6.598753 -12.78045,6.598715 -7.05811,3.8e-5 -12.78,-2.95425 -12.78045,-6.598715 -3.5e-4,-3.644759 5.72177,-6.599505 12.78045,-6.599467 z m -52.35481,18.362228 c 7.05811,-4.1e-5 12.78001,2.954245 12.78046,6.598715 3.6e-4,3.64476 -5.72178,6.59951 -12.78046,6.59947 -7.05868,4e-5 -12.78082,-2.95471 -12.78046,-6.59947 4.5e-4,-3.64447 5.72235,-6.598756 12.78046,-6.598715 z m 37.97585,0 c 7.05811,-4.1e-5 12.78001,2.954245 12.78046,6.598715 3.6e-4,3.64476 -5.72178,6.59951 -12.78046,6.59947 -7.05868,4e-5 -12.78081,-2.95471 -12.78045,-6.59947 4.5e-4,-3.64446 5.72234,-6.598753 12.78045,-6.598715 z"
       sodipodi:nodetypes="sssssssssssssccccccccccccccccccccccccccccccccccc" />
  </g>
</svg>
